<?xml version="1.0" standalone="no"?>
<!DOCTYPE svg PUBLIC "-//W3C//DTD SVG 20010904//EN" "http://www.w3.org/TR/2001/REC-SVG-20010904/DTD/svg10.dtd">
<svg xmlns="http://www.w3.org/2000/svg" version="1.0" width="407.000000pt" height="318.000000pt" viewBox="0 0 407.000000 318.000000" preserveAspectRatio="xMidYMid meet">
<metadata>
Created by potrace 1.16, written by Peter Selinger 2001-2019
<meta name="Producer" content="Online-Convert"/></metadata>
<g transform="translate(0.000000,318.000000) scale(0.100000,-0.100000)" fill="#000000" stroke="none">
<path d="M1422 2601 c-26 -42 -34 -48 -57 -44 -17 4 -25 1 -23 -7 2 -9 -34 -12 -142 -13 l-145 -2 -3 -42 c-3 -40 -5 -43 -33 -43 -16 0 -29 -4 -29 -8 0 -4 24 -26 53 -47 28 -22 54 -44 56 -49 2 -5 12 -17 23 -28 11 -11 18 -29 16 -41 -3 -21 -9 -22 -104 -25 l-101 -3 -36 -66 c-29 -51 -35 -69 -26 -80 9 -10 9 -20 0 -39 -19 -42 -13 -61 32 -97 55 -46 109 -67 167 -67 55 0 102 -14 150 -47 19 -12 50 -23 68 -23 18 0 52 -10 75 -21 57 -29 173 -39 190 -16 16 23 52 12 66 -20 14 -30 8 -41 -13 -24 -11 9 -15 8 -19 -3 -4 -10 13 -32 50 -63 31 -27 68 -61 82 -77 14 -16 58 -59 96 -97 58 -57 67 -71 55 -79 -13 -9 -13 -12 3 -25 17 -12 18 -18 7 -50 -16 -48 -6 -83 28 -97 15 -7 37 -21 49 -31 19 -17 25 -18 39 -7 9 8 14 23 11 37 -2 13 -1 23 3 23 12 0 40 -36 40 -52 0 -9 31 -30 76 -52 81 -41 104 -68 85 -103 -13 -25 2 -40 77 -75 41 -20 52 -22 52 -11 0 17 51 14 131 -7 37 -10 50 -19 63 -46 16 -35 50 -46 73 -23 8 8 14 0 23 -28 7 -21 16 -42 20 -47 13 -14 72 2 104 27 l29 24 -37 40 c-41 46 -40 68 5 77 16 3 48 25 72 49 23 24 54 47 70 51 36 9 103 -25 125 -64 9 -16 26 -31 36 -34 19 -5 19 -6 1 -26 -16 -18 -17 -24 -5 -60 13 -40 64 -98 73 -83 2 4 7 20 11 36 5 22 12 27 36 27 44 0 56 30 35 86 -9 24 -14 52 -11 61 3 13 -10 30 -47 58 -68 53 -114 74 -162 75 -23 0 -45 4 -50 9 -6 5 -26 12 -46 16 -29 5 -41 2 -67 -20 -17 -14 -52 -33 -79 -42 -26 -9 -61 -24 -78 -34 -48 -28 -102 -34 -124 -15 -10 9 -26 16 -37 15 -46 -5 -64 1 -64 20 0 11 -37 53 -90 101 -69 64 -99 100 -130 157 -43 80 -48 104 -26 122 8 7 13 32 13 66 0 38 5 61 17 74 14 15 15 28 8 74 -11 71 2 170 29 213 15 25 18 42 14 67 -4 19 -2 44 4 55 9 17 5 25 -24 51 -20 17 -40 31 -45 31 -5 0 -32 17 -60 38 -61 46 -130 67 -179 53 -23 -7 -47 -7 -76 1 -37 10 -47 9 -87 -10 -50 -25 -77 -27 -181 -11 -65 10 -78 9 -100 -6 -23 -15 -28 -15 -55 -1 -23 12 -31 13 -35 3 -3 -9 -9 -9 -31 1 -26 11 -26 13 -12 41 8 15 24 31 34 33 32 9 54 74 57 169 2 48 8 96 14 107 16 31 13 56 -9 75 -29 25 -35 22 -68 -32z"/>
</g>
</svg>
