<?xml version="1.0" standalone="no"?>
<!DOCTYPE svg PUBLIC "-//W3C//DTD SVG 20010904//EN" "http://www.w3.org/TR/2001/REC-SVG-20010904/DTD/svg10.dtd">
<svg xmlns="http://www.w3.org/2000/svg" version="1.0" width="304.000000pt" height="330.000000pt" viewBox="0 0 304.000000 330.000000" preserveAspectRatio="xMidYMid meet">
<metadata>
Created by potrace 1.16, written by Peter Selinger 2001-2019
<meta name="Producer" content="Online-Convert"/></metadata>
<g transform="translate(0.000000,330.000000) scale(0.100000,-0.100000)" fill="#000000" stroke="none">
<path d="M1125 2829 c-16 -10 -40 -19 -51 -19 -12 0 -28 -7 -35 -16 -21 -25 -56 -35 -83 -22 -19 8 -35 7 -75 -8 -65 -23 -61 -43 11 -58 29 -6 46 -39 30 -59 -5 -7 -12 -29 -16 -49 -4 -21 -18 -62 -31 -90 -19 -41 -25 -70 -25 -125 0 -39 4 -75 10 -78 5 -3 14 -23 20 -45 7 -27 21 -45 45 -60 26 -16 37 -33 49 -73 13 -46 21 -56 58 -77 63 -35 118 -93 124 -132 3 -18 1 -73 -6 -123 -6 -49 -13 -147 -14 -217 -2 -72 -9 -140 -16 -157 -7 -19 -10 -45 -5 -68 9 -55 9 -89 -4 -172 -9 -63 -9 -78 4 -97 8 -13 15 -31 15 -41 0 -28 33 -106 57 -136 11 -15 37 -34 56 -42 20 -8 38 -19 42 -25 3 -5 23 -15 45 -21 22 -7 49 -23 61 -35 23 -25 53 -31 64 -14 3 6 17 10 29 10 25 0 51 22 39 33 -3 4 -19 7 -33 7 -15 0 -33 6 -39 14 -6 7 -22 11 -36 9 -20 -4 -25 0 -31 23 -3 16 -12 38 -19 49 -22 36 -24 79 -7 127 14 40 14 52 3 83 -11 31 -11 39 2 53 24 26 35 65 26 89 -9 24 3 38 36 45 15 2 20 11 20 32 0 27 4 30 55 40 30 7 61 15 68 19 18 12 15 42 -8 62 -28 25 -17 34 42 32 38 -1 53 2 56 13 3 8 18 27 34 42 16 15 28 37 28 51 0 13 13 38 30 55 24 26 30 40 30 78 0 62 36 100 106 109 74 9 93 21 113 67 11 24 29 51 41 62 20 16 22 24 17 84 -5 60 -3 69 19 95 13 16 24 36 24 46 0 9 13 21 29 28 25 9 30 18 36 58 9 59 -5 91 -44 100 -16 3 -48 20 -70 36 -29 20 -53 29 -80 29 -23 0 -48 8 -64 20 -19 15 -40 20 -89 20 -74 0 -103 13 -75 34 21 16 21 29 1 83 -13 33 -23 45 -43 48 -14 3 -45 10 -69 15 -23 6 -49 10 -57 10 -20 0 -104 58 -142 98 -26 27 -36 32 -58 26 -35 -9 -168 16 -178 33 -11 18 -36 15 -72 -8z"/>
</g>
</svg>
