<?xml version="1.0" standalone="no"?>
<!DOCTYPE svg PUBLIC "-//W3C//DTD SVG 20010904//EN" "http://www.w3.org/TR/2001/REC-SVG-20010904/DTD/svg10.dtd">
<svg xmlns="http://www.w3.org/2000/svg" version="1.0" width="333.000000pt" height="250.000000pt" viewBox="0 0 333.000000 250.000000" preserveAspectRatio="xMidYMid meet">
<metadata>
Created by potrace 1.16, written by Peter Selinger 2001-2019
<meta name="Producer" content="Online-Convert"/></metadata>
<g transform="translate(0.000000,250.000000) scale(0.100000,-0.100000)" fill="#000000" stroke="none">
<path d="M920 1863 c0 -24 -2 -25 -12 -10 -7 9 -25 19 -40 23 -27 6 -28 4 -28 -30 0 -20 -4 -36 -10 -36 -5 0 -10 -10 -10 -23 0 -25 -31 -96 -61 -139 -11 -14 -19 -39 -19 -55 0 -15 -7 -41 -16 -58 -8 -16 -13 -38 -10 -49 3 -11 0 -28 -5 -39 -8 -13 -8 -22 0 -30 6 -6 11 -19 11 -29 0 -10 4 -18 10 -18 5 0 7 -13 4 -29 -4 -18 2 -46 15 -76 12 -26 21 -58 21 -72 0 -15 8 -27 23 -33 43 -18 99 -82 91 -104 -6 -15 24 -26 68 -26 15 0 29 -4 33 -9 3 -6 38 -28 78 -50 77 -43 166 -68 195 -55 9 4 30 6 47 4 35 -2 90 -60 99 -102 3 -17 17 -33 35 -43 28 -14 31 -14 45 7 13 18 20 20 48 12 27 -8 39 -23 74 -88 47 -88 58 -101 97 -110 27 -6 27 -6 27 41 0 44 3 50 38 72 20 13 54 35 74 49 31 20 46 24 83 20 30 -4 45 -2 45 6 0 6 7 2 15 -8 10 -13 28 -19 58 -21 44 -1 45 -1 43 29 l-1 31 72 3 c54 2 75 -2 87 -13 22 -22 22 -22 45 -1 21 19 22 19 49 -5 35 -31 42 -41 36 -51 -11 -18 9 -70 40 -101 18 -19 36 -41 39 -50 15 -39 50 -3 50 51 -1 23 -15 65 -39 112 -53 104 -53 143 4 203 23 26 42 51 42 57 0 6 11 15 24 21 13 6 29 22 35 35 6 13 17 24 26 24 8 0 15 8 15 18 0 10 5 23 11 29 13 13 1 63 -16 63 -11 0 -24 29 -25 54 0 4 11 5 25 2 34 -9 44 17 22 54 -15 24 -15 29 -2 34 8 3 15 17 15 31 0 15 7 28 18 32 26 9 52 34 46 44 -3 5 2 9 10 9 8 0 27 11 41 24 l25 24 -24 6 c-18 4 -24 12 -22 29 4 37 38 86 73 107 35 21 36 42 1 61 -11 6 -24 23 -30 39 -23 67 -105 28 -83 -39 10 -32 -29 -67 -89 -80 -58 -13 -86 -38 -86 -76 0 -30 -19 -45 -55 -45 -26 0 -32 -5 -40 -32 -8 -25 -21 -38 -55 -55 -65 -31 -68 -30 -67 26 2 56 -13 82 -37 62 -12 -10 -13 -6 -9 28 5 37 3 41 -23 52 -24 9 -26 12 -11 18 15 5 13 9 -13 24 -26 15 -36 17 -65 7 -40 -13 -78 1 -69 25 5 11 2 13 -10 9 -9 -3 -16 -10 -16 -14 0 -11 -29 -22 -67 -25 -32 -3 -32 -3 -17 20 9 14 24 27 35 30 11 4 17 11 13 16 -3 5 -14 7 -24 4 -11 -3 -56 5 -102 19 -64 19 -114 25 -223 29 -153 6 -340 36 -580 92 -82 19 -153 35 -157 35 -4 0 -8 -12 -8 -27z"/>
<path d="M1042 906 c-17 -8 -22 -17 -19 -33 3 -19 0 -23 -19 -23 -30 0 -33 -36 -4 -45 30 -10 24 -23 -14 -31 -28 -5 -34 -10 -32 -27 4 -33 18 -60 40 -78 20 -16 20 -16 -2 -28 -11 -6 -38 -15 -59 -20 l-38 -9 42 -1 c23 -1 54 5 69 11 21 10 28 10 31 1 6 -16 33 -5 33 14 0 8 -5 11 -11 7 -7 -4 -7 1 1 16 9 17 14 19 20 10 7 -11 14 -11 38 -1 25 11 36 9 76 -10 28 -13 53 -33 62 -50 8 -16 19 -29 24 -29 6 0 10 -7 10 -15 0 -19 29 -20 36 -1 7 18 -45 86 -66 86 -8 0 -23 7 -34 15 -17 13 -18 23 -11 108 l7 94 -55 26 c-57 29 -87 32 -125 13z"/>
</g>
</svg>
